<svg width="28" height="17" viewBox="0 0 28 17" fill="none" xmlns="http://www.w3.org/2000/svg">
<path d="M27.6977 8.5C27.6977 8.22449 27.5882 7.96026 27.3934 7.76545L20.7001 1.07211C20.5053 0.877298 20.241 0.767851 19.9655 0.767851C19.69 0.767851 19.4258 0.877299 19.231 1.07211C19.0362 1.26693 18.9267 1.53116 18.9267 1.80667C18.9267 2.08218 19.0362 2.34641 19.231 2.54122L24.151 7.46127L2.11665 7.46019L2.11664 7.71019V7.46019C1.84087 7.46019 1.57639 7.56974 1.38138 7.76474C1.18638 7.95974 1.07683 8.22422 1.07683 8.5C1.07683 8.77578 1.18638 9.04026 1.38138 9.23526C1.57639 9.43026 1.84087 9.53981 2.11664 9.53981V9.28981L2.11665 9.53981L24.151 9.53873L19.231 14.4588C19.0362 14.6536 18.9267 14.9178 18.9267 15.1933C18.9267 15.4688 19.0362 15.7331 19.231 15.9279C19.4258 16.1227 19.69 16.2321 19.9655 16.2321C20.241 16.2321 20.5053 16.1227 20.7001 15.9279L27.3934 9.23455C27.5882 9.03974 27.6977 8.77551 27.6977 8.5Z" fill="white" stroke="white" stroke-width="0.5"/>
</svg>
